<?xml version="1.0" encoding="UTF-8" standalone="no"?>
<svg
   version="1.1"
   width="1.5480001cm"
   height="3.7549999cm"
   viewBox="0 0 15480001 37549998"
   id="svg12925"
   sodipodi:docname="prampyv3-B_Cu.svg"
   inkscape:version="1.1.2 (0a00cf5339, 2022-02-04)"
   xmlns:inkscape="http://www.inkscape.org/namespaces/inkscape"
   xmlns:sodipodi="http://sodipodi.sourceforge.net/DTD/sodipodi-0.dtd"
   xmlns="http://www.w3.org/2000/svg"
   xmlns:svg="http://www.w3.org/2000/svg"
   xmlns:rdf="http://www.w3.org/1999/02/22-rdf-syntax-ns#"
   xmlns:cc="http://creativecommons.org/ns#"
   xmlns:dc="http://purl.org/dc/elements/1.1/">
  <defs
     id="defs12929" />
  <sodipodi:namedview
     id="namedview12927"
     pagecolor="#ffffff"
     bordercolor="#666666"
     borderopacity="1.0"
     inkscape:pageshadow="2"
     inkscape:pageopacity="0.0"
     inkscape:pagecheckerboard="0"
     inkscape:document-units="cm"
     showgrid="false"
     fit-margin-top="0"
     fit-margin-left="0"
     fit-margin-right="0"
     fit-margin-bottom="0"
     inkscape:zoom="4"
     inkscape:cx="-116.375"
     inkscape:cy="63.125"
     inkscape:window-width="1916"
     inkscape:window-height="1040"
     inkscape:window-x="0"
     inkscape:window-y="18"
     inkscape:window-maximized="1"
     inkscape:current-layer="svg12925" />
  <title
     id="title12585">SVG Picture created as prampyv3-B_Cu.svg date 2025/07/07 22:02:56 </title>
  <desc
     id="desc12587">Picture generated by PCBNEW </desc>
  <g
     style="fill:#000000;fill-opacity:1;stroke:#000000;stroke-linecap:round;stroke-linejoin:round;stroke-opacity:1"
     id="g12589"
     transform="translate(-2668599.5,-4002738)" />
  <g
     id="g12591"
     transform="translate(-2668599.5,-4002738)"
     style="fill:#000000;fill-opacity:0;stroke:#000000;stroke-width:0;stroke-linecap:round;stroke-linejoin:round;stroke-opacity:1" />
  <g
     style="fill:#4d7fc4;fill-opacity:0;stroke:#4d7fc4;stroke-width:0;stroke-linecap:round;stroke-linejoin:round;stroke-opacity:1"
     id="g12593"
     transform="translate(-2668599.5,-4002738)" />
  <g
     style="fill:#4d7fc4;fill-opacity:0;stroke:#4d7fc4;stroke-width:1;stroke-linecap:round;stroke-linejoin:round;stroke-opacity:1"
     id="g12595"
     transform="translate(-2668599.5,-4002738)" />
  <path
     id="path12597"
     style="fill:#4d7fc4;fill-opacity:1;fill-rule:evenodd;stroke:#4d7fc4;stroke-width:3.77953e-06;stroke-linecap:round;stroke-linejoin:round;stroke-opacity:1"
     d="M 24.90625 0 A 2.8346457 2.8346457 0 0 0 24.566406 0.076171875 L 21.126953 0.076171875 L 21.126953 15.193359 L 22.072266 15.193359 L 22.072266 88.541016 A 5.6692912 5.6692912 0 0 0 19.199219 93.052734 A 5.6692912 5.6692912 0 0 0 22.072266 97.5625 L 22.072266 105.67578 L 21.126953 105.67578 L 21.126953 120.79297 L 28.6875 120.79297 L 28.6875 105.67578 L 27.742188 105.67578 L 27.742188 97.53125 A 5.6692912 5.6692912 0 0 0 30.539062 93.052734 A 5.6692912 5.6692912 0 0 0 27.742188 88.283203 L 27.742188 15.193359 L 28.6875 15.193359 L 28.6875 5.6699219 L 36.076172 5.6699219 L 36.076172 12.3125 L 51.193359 12.3125 L 51.193359 0.97265625 L 41.974609 0.97265625 L 41.832031 0.83007812 A 2.8346457 2.8346457 0 0 0 39.826172 0 L 24.90625 0 z "
     transform="scale(264583.33)" />
  <g
     style="fill:#4d7fc4;fill-opacity:1;stroke:#4d7fc4;stroke-width:3e+06;stroke-linecap:round;stroke-linejoin:round;stroke-opacity:1"
     id="g12601"
     transform="translate(-2668599.5,-4002738)" />
  <path
     id="path13706"
     style="color:#000000;fill:#4d7fc4;fill-opacity:0;stroke:none;stroke-width:11.3386;stroke-linecap:butt;stroke-linejoin:miter;-inkscape-stroke:none"
     d="M 41.744141 15.638672 A 5.6692913 5.6692913 0 0 0 37.25 18.472656 L 36.613281 18.472656 A 2.8346457 2.8346457 0 0 0 36.611328 18.472656 A 2.8346457 2.8346457 0 0 0 36.609375 18.472656 A 2.8346457 2.8346457 0 0 0 34.609375 19.302734 L 32.464844 21.447266 A 2.8346457 2.8346457 0 0 0 31.634766 23.451172 L 31.634766 32.617188 A 5.6692913 5.6692913 0 0 0 28.800781 35.451172 A 5.6692913 5.6692913 0 0 0 31.634766 38.285156 L 31.634766 47.244141 A 5.6692913 5.6692913 0 0 0 28.800781 50.078125 A 5.6692913 5.6692913 0 0 0 34.46875 55.748047 A 5.6692913 5.6692913 0 0 0 40.138672 50.078125 A 5.6692913 5.6692913 0 0 0 37.304688 45.169922 L 37.304688 39.947266 A 5.6692913 5.6692913 0 0 0 40.138672 35.451172 A 5.6692913 5.6692913 0 0 0 37.304688 30.542969 L 37.304688 24.625 L 37.408203 24.521484 A 5.6692913 5.6692913 0 0 0 41.744141 26.976562 L 45.523438 26.976562 A 5.6692913 5.6692913 0 0 0 51.193359 21.306641 A 5.6692913 5.6692913 0 0 0 45.523438 15.638672 L 41.744141 15.638672 z "
     transform="scale(264583.33)" />
  <g
     id="g12607"
     transform="translate(-2668599.5,-4002738)"
     style="fill:#000000;fill-opacity:0;stroke:#000000;stroke-width:0;stroke-linecap:round;stroke-linejoin:round;stroke-opacity:1" />
  <g
     style="fill:#4d7fc4;fill-opacity:0;stroke:#4d7fc4;stroke-width:3e+06;stroke-linecap:round;stroke-linejoin:round;stroke-opacity:1"
     id="g12609"
     transform="translate(-2668599.5,-4002738)" />
  <g
     style="fill:#4d7fc4;fill-opacity:1;stroke:#4d7fc4;stroke-width:21200;stroke-linecap:round;stroke-linejoin:round;stroke-opacity:1"
     id="g12615"
     transform="translate(-2668599.5,-4002738)" />
  <path
     id="circle12617"
     style="fill:#4d7fc4;fill-opacity:1;stroke:#4d7fc4;stroke-width:3.77953e-06;stroke-linecap:round;stroke-linejoin:round;stroke-opacity:1"
     d="M 5.703125 0 A 2.8346457 2.8346457 0 0 0 3.703125 0.83007812 L 3.6640625 0.8671875 A 2.8346457 2.8346457 0 0 0 3.6132812 0.94140625 A 3.7795276 3.7795276 0 0 0 1.9277344 3.8554688 L 1.9277344 11.414062 A 3.7795276 3.7795276 0 0 0 2.8339844 13.599609 L 2.8339844 30.957031 A 5.669291 5.669291 0 0 0 0 35.451172 A 5.669291 5.669291 0 0 0 2.8730469 39.962891 L 2.8730469 107.17383 A 3.7795276 3.7795276 0 0 0 1.9277344 109.45508 L 1.9277344 117.01367 A 3.7795276 3.7795276 0 0 0 5.7070312 120.79297 A 3.7795276 3.7795276 0 0 0 9.4863281 117.01367 L 9.4863281 109.45508 A 3.7795276 3.7795276 0 0 0 8.5410156 107.02539 L 8.5410156 39.931641 A 5.669291 5.669291 0 0 0 11.337891 35.451172 A 5.669291 5.669291 0 0 0 8.5039062 30.660156 L 8.5039062 13.785156 A 3.7795276 3.7795276 0 0 0 9.4863281 11.414062 L 9.4863281 3.8554688 A 3.7795276 3.7795276 0 0 0 6.5917969 0.25195312 A 2.8346457 2.8346457 0 0 0 5.9082031 0.083984375 A 2.8346457 2.8346457 0 0 0 5.703125 0 z M 15.306641 0 A 2.8346457 2.8346457 0 0 0 14.201172 0.29492188 A 3.7795276 3.7795276 0 0 0 11.527344 3.8554688 L 11.527344 11.414062 A 3.7795276 3.7795276 0 0 0 12.472656 13.84375 L 12.472656 27.919922 A 2.8346457 2.8346457 0 0 0 12.265625 28.419922 L 12.265625 107.33594 A 3.7795276 3.7795276 0 0 0 11.527344 109.45508 L 11.527344 117.01367 A 3.7795276 3.7795276 0 0 0 12.472656 119.44336 L 12.472656 133.41797 L 8.0683594 133.41797 A 2.8346457 2.8346457 0 0 0 5.234375 136.25195 A 2.8346457 2.8346457 0 0 0 8.0683594 139.08594 L 15.269531 139.08594 A 2.8346457 2.8346457 0 0 0 17.208984 138.2832 A 2.8346457 2.8346457 0 0 0 17.273438 138.25586 L 17.310547 138.21875 A 2.8346457 2.8346457 0 0 0 18.142578 136.21484 L 18.142578 119.43945 A 3.7795276 3.7795276 0 0 0 19.085938 117.01367 L 19.085938 109.45508 A 3.7795276 3.7795276 0 0 0 17.935547 106.75391 L 17.935547 29.25 A 2.8346457 2.8346457 0 0 0 18.142578 28.214844 L 18.142578 13.839844 A 3.7795276 3.7795276 0 0 0 19.085938 11.414062 L 19.085938 3.8554688 A 3.7795276 3.7795276 0 0 0 16.417969 0.296875 A 2.8346457 2.8346457 0 0 0 15.306641 0 z "
     transform="scale(264583.33)" />
  <g
     id="g12621"
     transform="translate(-2668599.5,-4002738)"
     style="fill:#000000;fill-opacity:0;stroke:#000000;stroke-width:0;stroke-linecap:round;stroke-linejoin:round;stroke-opacity:1" />
  <g
     style="fill:#4d7fc4;fill-opacity:1;stroke:#4d7fc4;stroke-width:21200;stroke-linecap:round;stroke-linejoin:round;stroke-opacity:1"
     id="g12627"
     transform="translate(-2668599.5,-4002738)" />
  <path
     id="circle12629"
     style="fill:#4d7fc4;fill-opacity:1;stroke:#4d7fc4;stroke-width:3.77953e-06;stroke-linecap:round;stroke-linejoin:round;stroke-opacity:1"
     d="M 34.46875 72.755859 A 5.669291 5.669291 0 0 0 28.800781 78.425781 A 5.669291 5.669291 0 0 0 31.634766 81.259766 L 31.634766 121.85156 A 2.8346457 2.8346457 0 0 0 32.464844 123.63477 A 2.8346457 2.8346457 0 0 0 32.464844 123.85547 L 34.865234 126.25586 A 2.8346457 2.8346457 0 0 0 35.263672 126.42188 A 2.8346457 2.8346457 0 0 0 36.869141 127.08594 L 44.724609 127.08594 A 3.7795276 3.7795276 0 0 0 47.167969 128.03125 L 54.728516 128.03125 A 3.7795276 3.7795276 0 0 0 58.507812 124.25195 A 3.7795276 3.7795276 0 0 0 54.728516 120.47266 L 47.167969 120.47266 A 3.7795276 3.7795276 0 0 0 44.724609 121.41797 L 38.042969 121.41797 L 37.304688 120.67773 L 37.304688 82.919922 A 5.669291 5.669291 0 0 0 40.138672 78.425781 A 5.669291 5.669291 0 0 0 34.46875 72.755859 z M 43.767578 87.382812 A 5.6692912 5.6692912 0 0 0 38.097656 93.052734 A 5.6692912 5.6692912 0 0 0 43.767578 98.720703 A 5.6692912 5.6692912 0 0 0 48.095703 96.287109 L 48.113281 96.304688 L 48.113281 111.02344 L 47.167969 111.02344 A 3.7795276 3.7795276 0 0 0 43.388672 114.80273 A 3.7795276 3.7795276 0 0 0 47.167969 118.58203 L 54.728516 118.58203 A 3.7795276 3.7795276 0 0 0 58.507812 114.80273 A 3.7795276 3.7795276 0 0 0 54.728516 111.02344 L 53.783203 111.02344 L 53.783203 95.130859 A 2.8346457 2.8346457 0 0 0 53.441406 93.859375 A 2.8346457 2.8346457 0 0 0 53.226562 93.537109 A 2.8346457 2.8346457 0 0 0 52.953125 93.126953 L 50.873047 91.046875 A 2.8346457 2.8346457 0 0 0 48.869141 90.216797 L 48.675781 90.216797 A 5.6692912 5.6692912 0 0 0 43.767578 87.382812 z M 47.167969 129.92188 A 3.7795276 3.7795276 0 0 0 43.505859 133.41797 L 41.664062 133.41797 A 5.6692909 5.6692909 0 0 0 36.869141 130.58203 A 5.6692909 5.6692909 0 0 0 31.199219 136.25195 A 5.6692909 5.6692909 0 0 0 36.869141 141.92188 A 5.6692909 5.6692909 0 0 0 41.365234 139.08594 L 48.396484 139.08594 A 2.8346457 2.8346457 0 0 0 50.400391 138.25586 L 51.175781 137.48047 L 54.728516 137.48047 A 3.7795276 3.7795276 0 0 0 58.507812 133.70117 A 3.7795276 3.7795276 0 0 0 54.728516 129.92188 L 47.167969 129.92188 z M 8.0683594 130.58203 A 5.6692909 5.6692909 0 0 0 2.4003906 136.25195 A 5.6692909 5.6692909 0 0 0 8.0683594 141.92188 A 5.6692909 5.6692909 0 0 0 13.738281 136.25195 A 5.6692909 5.6692909 0 0 0 8.0683594 130.58203 z "
     transform="scale(264583.33)" />
  <g
     style="fill:#4d7fc4;fill-opacity:1;stroke:#4d7fc4;stroke-width:21200;stroke-linecap:round;stroke-linejoin:round;stroke-opacity:1"
     id="g12633"
     transform="translate(-2668599.5,-4002738)" />
  <g
     id="g12635"
     transform="translate(-2668599.5,-4002738)"
     style="fill:#000000;fill-opacity:0;stroke:#000000;stroke-width:0;stroke-linecap:round;stroke-linejoin:round;stroke-opacity:1" />
  <g
     style="fill:#4d7fc4;fill-opacity:1;stroke:#4d7fc4;stroke-width:21200;stroke-linecap:round;stroke-linejoin:round;stroke-opacity:1"
     id="g12637"
     transform="translate(-2668599.5,-4002738)" />
  <g
     style="fill:#4d7fc4;fill-opacity:1;stroke:#4d7fc4;stroke-width:2e+06;stroke-linecap:round;stroke-linejoin:round;stroke-opacity:1"
     id="g12643"
     transform="translate(-2668599.5,-4002738)" />
  <g
     id="g12651"
     transform="translate(-2668599.5,-4002738)"
     style="fill:#000000;fill-opacity:0;stroke:#000000;stroke-width:0;stroke-linecap:round;stroke-linejoin:round;stroke-opacity:1" />
  <g
     style="fill:#4d7fc4;fill-opacity:0;stroke:#4d7fc4;stroke-width:2e+06;stroke-linecap:round;stroke-linejoin:round;stroke-opacity:1"
     id="g12653"
     transform="translate(-2668599.5,-4002738)" />
  <g
     style="fill:#4d7fc4;fill-opacity:1;stroke:#4d7fc4;stroke-width:21200;stroke-linecap:round;stroke-linejoin:round;stroke-opacity:1"
     id="g12661"
     transform="translate(-2668599.5,-4002738)" />
  <g
     id="g12663"
     transform="translate(-2668599.5,-4002738)"
     style="fill:#000000;fill-opacity:0;stroke:#000000;stroke-width:0;stroke-linecap:round;stroke-linejoin:round;stroke-opacity:1" />
  <g
     style="fill:#4d7fc4;fill-opacity:1;stroke:#4d7fc4;stroke-width:21200;stroke-linecap:round;stroke-linejoin:round;stroke-opacity:1"
     id="g12665"
     transform="translate(-2668599.5,-4002738)" />
  <g
     style="fill:#4d7fc4;fill-opacity:1;stroke:#4d7fc4;stroke-width:2e+06;stroke-linecap:round;stroke-linejoin:round;stroke-opacity:1"
     id="g12667"
     transform="translate(-2668599.5,-4002738)" />
  <g
     id="g12677"
     transform="translate(-2668599.5,-4002738)"
     style="fill:#000000;fill-opacity:0;stroke:#000000;stroke-width:0;stroke-linecap:round;stroke-linejoin:round;stroke-opacity:1" />
  <g
     style="fill:#4d7fc4;fill-opacity:0;stroke:#4d7fc4;stroke-width:2e+06;stroke-linecap:round;stroke-linejoin:round;stroke-opacity:1"
     id="g12679"
     transform="translate(-2668599.5,-4002738)" />
  <g
     style="fill:#4d7fc4;fill-opacity:0;stroke:#4d7fc4;stroke-width:1;stroke-linecap:round;stroke-linejoin:round;stroke-opacity:1"
     id="g12681"
     transform="translate(-2668599.5,-4002738)" />
  <g
     style="fill:#4d7fc4;fill-opacity:1;stroke:#4d7fc4;stroke-width:2e+06;stroke-linecap:round;stroke-linejoin:round;stroke-opacity:1"
     id="g12687"
     transform="translate(-2668599.5,-4002738)" />
  <g
     id="g12695"
     transform="translate(-2668599.5,-4002738)"
     style="fill:#000000;fill-opacity:0;stroke:#000000;stroke-width:0;stroke-linecap:round;stroke-linejoin:round;stroke-opacity:1" />
  <g
     style="fill:#4d7fc4;fill-opacity:0;stroke:#4d7fc4;stroke-width:2e+06;stroke-linecap:round;stroke-linejoin:round;stroke-opacity:1"
     id="g12697"
     transform="translate(-2668599.5,-4002738)" />
  <g
     style="fill:#4d7fc4;fill-opacity:1;stroke:#4d7fc4;stroke-width:21200;stroke-linecap:round;stroke-linejoin:round;stroke-opacity:1"
     id="g12703"
     transform="translate(-2668599.5,-4002738)" />
  <g
     style="fill:#4d7fc4;fill-opacity:1;stroke:#4d7fc4;stroke-width:21200;stroke-linecap:round;stroke-linejoin:round;stroke-opacity:1"
     id="g12709"
     transform="translate(-2668599.5,-4002738)" />
  <g
     id="g12711"
     transform="translate(-2668599.5,-4002738)"
     style="fill:#000000;fill-opacity:0;stroke:#000000;stroke-width:0;stroke-linecap:round;stroke-linejoin:round;stroke-opacity:1" />
  <g
     id="g12713"
     transform="translate(-2668599.5,-4002738)"
     style="fill:#000000;fill-opacity:0;stroke:#000000;stroke-width:0;stroke-linecap:round;stroke-linejoin:round;stroke-opacity:1" />
  <g
     style="fill:#4d7fc4;fill-opacity:1;stroke:#4d7fc4;stroke-width:21200;stroke-linecap:round;stroke-linejoin:round;stroke-opacity:1"
     id="g12715"
     transform="translate(-2668599.5,-4002738)" />
  <g
     style="fill:#4d7fc4;fill-opacity:1;stroke:#4d7fc4;stroke-width:1.5e+06;stroke-linecap:round;stroke-linejoin:round;stroke-opacity:1"
     id="g12717"
     transform="translate(-2668599.5,-4002738)" />
  <g
     id="g12781"
     transform="translate(-2668599.5,-4002738)"
     style="fill:#000000;fill-opacity:0;stroke:#000000;stroke-width:0;stroke-linecap:round;stroke-linejoin:round;stroke-opacity:1" />
  <g
     style="fill:#ffffff;fill-opacity:0;stroke:#ffffff;stroke-width:1.5e+06;stroke-linecap:round;stroke-linejoin:round;stroke-opacity:1"
     id="g12785"
     transform="translate(-2668599.5,-4002738)" />
  <g
     style="fill:#ffffff;fill-opacity:1;stroke:#ffffff;stroke-width:1;stroke-linecap:round;stroke-linejoin:round;stroke-opacity:1"
     id="g12789"
     transform="translate(-2668599.5,-4002738)">
    <circle
       cx="14213600"
       cy="5760238"
       r="200000"
       id="circle12787" />
  </g>
  <g
     style="fill:#ffffff;fill-opacity:1;stroke:#ffffff;stroke-width:21200;stroke-linecap:round;stroke-linejoin:round;stroke-opacity:1"
     id="g12791"
     transform="translate(-2668599.5,-4002738)" />
  <circle
     cx="11545000"
     cy="5637500"
     r="200000"
     id="circle12793"
     style="fill:#ffffff;fill-opacity:1;stroke:#ffffff;stroke-width:1;stroke-linecap:round;stroke-linejoin:round;stroke-opacity:1" />
  <g
     style="fill:#ffffff;fill-opacity:1;stroke:#ffffff;stroke-width:21200;stroke-linecap:round;stroke-linejoin:round;stroke-opacity:1"
     id="g12797"
     transform="translate(-2668599.5,-4002738)" />
  <circle
     cx="9120000"
     cy="9380000"
     r="200000"
     id="circle12799"
     style="fill:#ffffff;fill-opacity:1;stroke:#ffffff;stroke-width:1;stroke-linecap:round;stroke-linejoin:round;stroke-opacity:1" />
  <g
     style="fill:#ffffff;fill-opacity:1;stroke:#ffffff;stroke-width:21200;stroke-linecap:round;stroke-linejoin:round;stroke-opacity:1"
     id="g12803"
     transform="translate(-2668599.5,-4002738)" />
  <g
     style="fill:#ffffff;fill-opacity:1;stroke:#ffffff;stroke-width:1;stroke-linecap:round;stroke-linejoin:round;stroke-opacity:1"
     id="g12807"
     transform="translate(-2668599.5,-4002738)">
    <circle
       cx="4168600"
       cy="13382738"
       r="200000"
       id="circle12805" />
  </g>
  <g
     style="fill:#ffffff;fill-opacity:1;stroke:#ffffff;stroke-width:21200;stroke-linecap:round;stroke-linejoin:round;stroke-opacity:1"
     id="g12809"
     transform="translate(-2668599.5,-4002738)" />
  <g
     style="fill:#ffffff;fill-opacity:1;stroke:#ffffff;stroke-width:1;stroke-linecap:round;stroke-linejoin:round;stroke-opacity:1"
     id="g12813"
     transform="translate(-2668599.5,-4002738)">
    <circle
       cx="9248600"
       cy="28622738"
       r="200000"
       id="circle12811" />
  </g>
  <g
     style="fill:#ffffff;fill-opacity:1;stroke:#ffffff;stroke-width:21200;stroke-linecap:round;stroke-linejoin:round;stroke-opacity:1"
     id="g12815"
     transform="translate(-2668599.5,-4002738)" />
  <g
     style="fill:#ffffff;fill-opacity:1;stroke:#ffffff;stroke-width:1;stroke-linecap:round;stroke-linejoin:round;stroke-opacity:1"
     id="g12819"
     transform="translate(-2668599.5,-4002738)">
    <circle
       cx="14248600"
       cy="28622738"
       r="200000"
       id="circle12817" />
  </g>
  <g
     style="fill:#ffffff;fill-opacity:1;stroke:#ffffff;stroke-width:21200;stroke-linecap:round;stroke-linejoin:round;stroke-opacity:1"
     id="g12821"
     transform="translate(-2668599.5,-4002738)" />
  <g
     style="fill:#ffffff;fill-opacity:1;stroke:#ffffff;stroke-width:1;stroke-linecap:round;stroke-linejoin:round;stroke-opacity:1"
     id="g12825"
     transform="translate(-2668599.5,-4002738)">
    <circle
       cx="9258600"
       cy="33962736"
       r="200000"
       id="circle12823" />
  </g>
  <g
     style="fill:#ffffff;fill-opacity:1;stroke:#ffffff;stroke-width:21200;stroke-linecap:round;stroke-linejoin:round;stroke-opacity:1"
     id="g12827"
     transform="translate(-2668599.5,-4002738)" />
  <g
     style="fill:#ffffff;fill-opacity:1;stroke:#ffffff;stroke-width:1;stroke-linecap:round;stroke-linejoin:round;stroke-opacity:1"
     id="g12831"
     transform="translate(-2668599.5,-4002738)">
    <circle
       cx="6718600"
       cy="33962736"
       r="200000"
       id="circle12829" />
  </g>
  <g
     style="fill:#ffffff;fill-opacity:1;stroke:#ffffff;stroke-width:21200;stroke-linecap:round;stroke-linejoin:round;stroke-opacity:1"
     id="g12833"
     transform="translate(-2668599.5,-4002738)" />
  <g
     style="fill:#ffffff;fill-opacity:1;stroke:#ffffff;stroke-width:1;stroke-linecap:round;stroke-linejoin:round;stroke-opacity:1"
     id="g12837"
     transform="translate(-2668599.5,-4002738)">
    <circle
       cx="4178600"
       cy="33962736"
       r="200000"
       id="circle12835" />
  </g>
  <g
     style="fill:#ffffff;fill-opacity:1;stroke:#ffffff;stroke-width:21200;stroke-linecap:round;stroke-linejoin:round;stroke-opacity:1"
     id="g12839"
     transform="translate(-2668599.5,-4002738)" />
  <g
     style="fill:#ffffff;fill-opacity:1;stroke:#ffffff;stroke-width:1;stroke-linecap:round;stroke-linejoin:round;stroke-opacity:1"
     id="g12843"
     transform="translate(-2668599.5,-4002738)">
    <circle
       cx="4803600"
       cy="40052736"
       r="200000"
       id="circle12841" />
  </g>
  <g
     style="fill:#ffffff;fill-opacity:1;stroke:#ffffff;stroke-width:21200;stroke-linecap:round;stroke-linejoin:round;stroke-opacity:1"
     id="g12845"
     transform="translate(-2668599.5,-4002738)" />
  <g
     style="fill:#ffffff;fill-opacity:1;stroke:#ffffff;stroke-width:1;stroke-linecap:round;stroke-linejoin:round;stroke-opacity:1"
     id="g12849"
     transform="translate(-2668599.5,-4002738)">
    <circle
       cx="12423600"
       cy="40052736"
       r="200000"
       id="circle12847" />
  </g>
  <g
     style="fill:#ffffff;fill-opacity:1;stroke:#ffffff;stroke-width:21200;stroke-linecap:round;stroke-linejoin:round;stroke-opacity:1"
     id="g12851"
     transform="translate(-2668599.5,-4002738)" />
  <g
     style="fill:#ffffff;fill-opacity:1;stroke:#ffffff;stroke-width:1;stroke-linecap:round;stroke-linejoin:round;stroke-opacity:1"
     id="g12855"
     transform="translate(-2668599.5,-4002738)">
    <circle
       cx="16148600"
       cy="34377736"
       r="200000"
       id="circle12853" />
  </g>
  <g
     style="fill:#ffffff;fill-opacity:1;stroke:#ffffff;stroke-width:21200;stroke-linecap:round;stroke-linejoin:round;stroke-opacity:1"
     id="g12857"
     transform="translate(-2668599.5,-4002738)" />
  <g
     style="fill:#ffffff;fill-opacity:1;stroke:#ffffff;stroke-width:1;stroke-linecap:round;stroke-linejoin:round;stroke-opacity:1"
     id="g12861"
     transform="translate(-2668599.5,-4002738)">
    <circle
       cx="16148600"
       cy="36877736"
       r="200000"
       id="circle12859" />
  </g>
  <g
     style="fill:#ffffff;fill-opacity:1;stroke:#ffffff;stroke-width:21200;stroke-linecap:round;stroke-linejoin:round;stroke-opacity:1"
     id="g12863"
     transform="translate(-2668599.5,-4002738)" />
  <g
     style="fill:#ffffff;fill-opacity:1;stroke:#ffffff;stroke-width:1;stroke-linecap:round;stroke-linejoin:round;stroke-opacity:1"
     id="g12867"
     transform="translate(-2668599.5,-4002738)">
    <circle
       cx="16148600"
       cy="39377736"
       r="200000"
       id="circle12865" />
  </g>
  <g
     style="fill:#ffffff;fill-opacity:1;stroke:#ffffff;stroke-width:21200;stroke-linecap:round;stroke-linejoin:round;stroke-opacity:1"
     id="g12869"
     transform="translate(-2668599.5,-4002738)" />
  <g
     style="fill:#ffffff;fill-opacity:1;stroke:#ffffff;stroke-width:1;stroke-linecap:round;stroke-linejoin:round;stroke-opacity:1"
     id="g12873"
     transform="translate(-2668599.5,-4002738)">
    <circle
       cx="9258600"
       cy="6022738"
       r="200000"
       id="circle12871" />
  </g>
  <g
     style="fill:#ffffff;fill-opacity:1;stroke:#ffffff;stroke-width:21200;stroke-linecap:round;stroke-linejoin:round;stroke-opacity:1"
     id="g12875"
     transform="translate(-2668599.5,-4002738)" />
  <g
     style="fill:#ffffff;fill-opacity:1;stroke:#ffffff;stroke-width:1;stroke-linecap:round;stroke-linejoin:round;stroke-opacity:1"
     id="g12879"
     transform="translate(-2668599.5,-4002738)">
    <circle
       cx="6718600"
       cy="6022738"
       r="200000"
       id="circle12877" />
  </g>
  <g
     style="fill:#ffffff;fill-opacity:1;stroke:#ffffff;stroke-width:21200;stroke-linecap:round;stroke-linejoin:round;stroke-opacity:1"
     id="g12881"
     transform="translate(-2668599.5,-4002738)" />
  <g
     style="fill:#ffffff;fill-opacity:1;stroke:#ffffff;stroke-width:1;stroke-linecap:round;stroke-linejoin:round;stroke-opacity:1"
     id="g12885"
     transform="translate(-2668599.5,-4002738)">
    <circle
       cx="4178600"
       cy="6022738"
       r="200000"
       id="circle12883" />
  </g>
  <g
     style="fill:#ffffff;fill-opacity:1;stroke:#ffffff;stroke-width:21200;stroke-linecap:round;stroke-linejoin:round;stroke-opacity:1"
     id="g12887"
     transform="translate(-2668599.5,-4002738)" />
  <circle
     cx="9120000"
     cy="13250000"
     r="200000"
     id="circle12889"
     style="fill:#ffffff;fill-opacity:1;stroke:#ffffff;stroke-width:1;stroke-linecap:round;stroke-linejoin:round;stroke-opacity:1" />
  <g
     style="fill:#ffffff;fill-opacity:1;stroke:#ffffff;stroke-width:21200;stroke-linecap:round;stroke-linejoin:round;stroke-opacity:1"
     id="g12893"
     transform="translate(-2668599.5,-4002738)" />
  <g
     style="fill:#ffffff;fill-opacity:1;stroke:#ffffff;stroke-width:1;stroke-linecap:round;stroke-linejoin:round;stroke-opacity:1"
     id="g12897"
     transform="translate(-2668599.5,-4002738)">
    <circle
       cx="11788600"
       cy="24752738"
       r="200000"
       id="circle12895" />
  </g>
  <g
     style="fill:#ffffff;fill-opacity:1;stroke:#ffffff;stroke-width:21200;stroke-linecap:round;stroke-linejoin:round;stroke-opacity:1"
     id="g12899"
     transform="translate(-2668599.5,-4002738)" />
  <g
     style="fill:#000000;fill-opacity:1;stroke:#000000;stroke-width:21200;stroke-linecap:round;stroke-linejoin:round;stroke-opacity:1"
     id="g12923"
     transform="translate(-2668599.5,-4002738)">
    <g
       id="g12901" />
    <g
       id="g12903" />
    <g
       id="g12905" />
    <g
       id="g12907" />
    <g
       id="g12909" />
    <g
       id="g12911" />
    <g
       id="g12913" />
    <g
       id="g12915" />
    <g
       id="g12917" />
    <g
       id="g12919" />
    <g
       id="g12921" />
  </g>
  <metadata
     id="metadata12988">
    <rdf:RDF>
      <cc:Work
         rdf:about="">
        <dc:title>SVG Picture created as prampyv3-B_Cu.svg date 2025/07/07 22:02:56 </dc:title>
      </cc:Work>
    </rdf:RDF>
  </metadata>
</svg>
